<svg width="104" height="49" viewBox="0 0 104 49" fill="none" xmlns="http://www.w3.org/2000/svg">
<path d="M8.03917 30.7759H24.4696C28.489 30.7759 31.7413 27.5018 31.7413 23.4729V7.30301C31.749 3.27403 28.489 0 24.4696 0H8.03917C4.01977 0 0.759766 3.27403 0.759766 7.30301V23.4652C0.759766 27.5095 4.01977 30.7759 8.03917 30.7759Z" fill="white"/>
<path d="M0.759766 16.2623C2.53935 12.0946 5.62293 4.87638 7.70166 0H10.6395C12.7413 4.94571 21.8693 26.3001 22.1608 26.9703C22.9969 28.8577 24.2472 30.1827 25.5051 30.7759H16.0396C16.9754 30.2905 17.9419 29.2043 17.0368 26.9934C16.4078 25.4527 7.87042 5.50037 7.55592 4.77623C5.79168 8.85143 2.33991 17.0327 0.775107 20.715L0.759766 16.2623Z" fill="#010101"/>
<path d="M43.7854 30.7759H60.2158C64.2352 30.7759 67.4876 27.5018 67.4876 23.4729V7.30301C67.4953 3.27403 64.2429 0 60.2235 0H43.7854C39.766 0 36.5137 3.27403 36.5137 7.30301V23.4652C36.5137 27.5095 39.7737 30.7759 43.7854 30.7759Z" fill="white"/>
<path d="M43.7296 15.646C47.5496 15.3533 53.2795 12.7263 53.2795 7.11812C53.2795 4.16765 51.8605 1.41746 48.5007 0H42.6097C46.2149 0.716435 48.0328 3.57447 48.0328 7.14124C48.0328 12.6955 44.9799 14.9527 39.971 14.9527C39.4417 14.9527 37.1099 14.9527 36.5039 14.9527V16.2084C36.8644 16.2084 37.0485 16.2084 37.4934 16.2084C39.1349 16.2084 40.1551 16.2623 41.1216 17.4564C42.8935 19.6519 47.5189 26.562 51.2852 30.7836H59.1629C53.4406 28.642 48.9993 17.5103 43.7296 15.646Z" fill="#010101"/>
<path d="M79.5374 30.7834H95.9678C99.9872 30.7834 103.24 27.5094 103.24 23.4804V7.31058C103.24 3.27389 99.9795 0.00756836 95.9678 0.00756836H79.5374C75.518 0.00756836 72.2656 3.2816 72.2656 7.31058V23.4727C72.2656 27.5094 75.518 30.7834 79.5374 30.7834Z" fill="white"/>
<path d="M98.4839 27.0088V3.82869C98.4839 2.54219 98.7831 1.54072 99.366 0.839692C98.3458 0.308144 97.1952 0 95.9756 0H93.6898C91.542 4.99193 83.4265 23.9582 83.0276 24.9057C82.7975 24.3357 76.7991 10.2073 73.6388 3.05063C72.7797 4.25239 72.2734 5.72377 72.2734 7.31072V11.6401C75.1959 18.4424 79.177 27.7176 80.5654 30.7836H82.3449C84.393 26.2693 92.1096 8.02715 93.6361 4.4989C93.7588 4.22157 93.8585 3.94424 93.8969 3.8595C93.8969 3.91343 93.8815 4.2909 93.8815 4.50661V27.0165C93.8815 28.9809 93.1145 30.2135 91.7261 30.7913H95.9833C97.2182 30.7913 98.3765 30.4831 99.3967 29.9362C98.7907 29.2429 98.4839 28.2799 98.4839 27.0088Z" fill="#010101"/>
<path d="M36.9121 43.8093C36.9121 43.1486 37.0196 42.5467 37.2346 42.0082C37.4496 41.4696 37.7497 41.008 38.1304 40.6279C38.5111 40.2478 38.9635 39.9536 39.492 39.75C40.0205 39.5463 40.5983 39.4422 41.2299 39.4422C41.8704 39.4332 42.4526 39.5282 42.9856 39.7273C43.5186 39.9265 43.9755 40.2161 44.3607 40.5962C44.7459 40.9764 45.046 41.438 45.2609 41.972C45.4759 42.5105 45.5834 43.1078 45.5834 43.7686C45.5834 44.4157 45.4759 44.9995 45.2609 45.529C45.046 46.0584 44.7459 46.511 44.3607 46.8911C43.9755 47.2712 43.5186 47.5699 42.9856 47.7826C42.4571 47.9953 41.8704 48.1084 41.2299 48.113C40.5983 48.113 40.0205 48.0089 39.492 47.8052C38.9635 47.5971 38.5111 47.3074 38.1304 46.9318C37.7497 46.5562 37.4496 46.1037 37.2346 45.5742C37.0151 45.0447 36.9121 44.4564 36.9121 43.8093ZM38.435 43.7188C38.435 44.1623 38.5022 44.5696 38.6365 44.9452C38.7709 45.3208 38.9635 45.6421 39.2098 45.9136C39.4562 46.1851 39.7518 46.3978 40.0922 46.5562C40.4326 46.7146 40.8178 46.787 41.2388 46.787C41.6598 46.787 42.045 46.7101 42.3899 46.5562C42.7348 46.4024 43.0304 46.1897 43.2768 45.9136C43.5231 45.6421 43.7112 45.3208 43.8501 44.9452C43.9889 44.5696 44.0516 44.1668 44.0516 43.7188C44.0516 43.307 43.9844 42.9223 43.8501 42.5648C43.7157 42.2073 43.5231 41.895 43.2768 41.6235C43.0304 41.3565 42.7348 41.1438 42.3899 40.9945C42.045 40.8406 41.6598 40.7682 41.2388 40.7682C40.8133 40.7682 40.4326 40.8451 40.0922 40.9945C39.7473 41.1483 39.4562 41.3565 39.2098 41.6235C38.9635 41.8905 38.7754 42.2073 38.6365 42.5648C38.4977 42.9223 38.435 43.307 38.435 43.7188Z" fill="white"/>
<path d="M49.5254 39.4417H51.5466L55.7017 45.8381H55.7252V39.4417H57.2528V48.052H55.3163L51.0765 41.4479H51.053V48.052H49.5301L49.5254 39.4417Z" fill="white"/>
<path d="M61.1934 39.4417H66.8714V40.8295H62.7163V42.9443H66.6505V44.3322H62.7163V46.6689H67.0876V48.0567H61.1934V39.4417Z" fill="white"/>
</svg>
