<svg width="21" height="21" viewBox="0 0 21 21" fill="none" xmlns="http://www.w3.org/2000/svg">
<path d="M3.7851 16.6851C5.81673 15.5367 8.16386 14.8813 10.6641 14.8813C13.1643 14.8813 15.5114 15.5367 17.543 16.6851M13.6641 8.88135C13.6641 10.5382 12.3209 11.8813 10.6641 11.8813C9.00721 11.8813 7.66406 10.5382 7.66406 8.88135C7.66406 7.22449 9.00721 5.88135 10.6641 5.88135C12.3209 5.88135 13.6641 7.22449 13.6641 8.88135ZM19.6641 10.8813C19.6641 15.8519 15.6346 19.8813 10.6641 19.8813C5.6935 19.8813 1.66406 15.8519 1.66406 10.8813C1.66406 5.91078 5.6935 1.88135 10.6641 1.88135C15.6346 1.88135 19.6641 5.91078 19.6641 10.8813Z" stroke="white" stroke-width="2" stroke-linecap="round" stroke-linejoin="round"/>
</svg>
