<svg width="25" height="25" viewBox="0 0 25 25" fill="none" xmlns="http://www.w3.org/2000/svg">
<path fill-rule="evenodd" clip-rule="evenodd" d="M3.93359 6.88115C3.93359 6.21841 4.47085 5.68115 5.13359 5.68115H19.5336C20.1963 5.68115 20.7336 6.21841 20.7336 6.88115C20.7336 7.54389 20.1963 8.08115 19.5336 8.08115H5.13359C4.47085 8.08115 3.93359 7.54389 3.93359 6.88115Z" fill="white"/>
<path fill-rule="evenodd" clip-rule="evenodd" d="M3.93359 12.8812C3.93359 12.2184 4.47085 11.6812 5.13359 11.6812H19.5336C20.1963 11.6812 20.7336 12.2184 20.7336 12.8812C20.7336 13.5439 20.1963 14.0812 19.5336 14.0812H5.13359C4.47085 14.0812 3.93359 13.5439 3.93359 12.8812Z" fill="white"/>
<path fill-rule="evenodd" clip-rule="evenodd" d="M3.93359 18.8812C3.93359 18.2184 4.47085 17.6812 5.13359 17.6812H12.3336C12.9963 17.6812 13.5336 18.2184 13.5336 18.8812C13.5336 19.5439 12.9963 20.0812 12.3336 20.0812H5.13359C4.47085 20.0812 3.93359 19.5439 3.93359 18.8812Z" fill="white"/>
</svg>
