<svg
          width="18"
          height="18"
          viewBox="0 0 18 18"
          fill="none"
          xmlns="http://www.w3.org/2000/svg"
          className="stroke-current"
        >
          <path
            d="M1.5 9.11304L3.16667 7.44637M3.16667 7.44637L9 1.61304L14.8333 7.44637M3.16667 7.44637V15.7797C3.16667 16.2399 3.53976 16.613 4 16.613H6.5M14.8333 7.44637L16.5 9.11304M14.8333 7.44637V15.7797C14.8333 16.2399 14.4602 16.613 14 16.613H11.5M6.5 16.613C6.96024 16.613 7.33333 16.2399 7.33333 15.7797V12.4464C7.33333 11.9861 7.70643 11.613 8.16667 11.613H9.83333C10.2936 11.613 10.6667 11.9861 10.6667 12.4464V15.7797C10.6667 16.2399 11.0398 16.613 11.5 16.613M6.5 16.613H11.5"
            strokeWidth="2"
            strokeLinecap="round"
            strokeLinejoin="round"
          />
        </svg>